<?xml version="1.0" encoding="UTF-8"?>
<svg id="Capa_1" xmlns="http://www.w3.org/2000/svg" version="1.1" viewBox="0 0 1080 1080">
  <!-- Generator: Adobe Illustrator 29.8.1, SVG Export Plug-In . SVG Version: 2.1.1 Build 2)  -->
  <defs>
    <style>
      .st0 {
        fill: #fff;
      }

      .st1 {
        fill: #0061fe;
      }
    </style>
  </defs>
  <rect class="st1" width="1080" height="1080" rx="76.69" ry="76.69"/>
  <path class="st0" d="M945.86,326c0-.29,0-.57-.01-.86,0-.43,0-.85-.02-1.28-.02-.74-.04-1.49-.08-2.23-.02-.37-.04-.74-.06-1.11-.03-.36-.04-.72-.07-1.08,0-.1-.02-.21-.03-.31-.05-.59-.1-1.18-.15-1.76,0-.03,0-.06,0-.1-4.37-44.62-41.98-79.47-87.75-79.47-2.41,0-4.79.09-7.14.29h0c-.13.01-.26.02-.38.03-1.19.1-2.36.22-3.53.37-.19.02-.38.05-.56.07-4.06.53-8.03,1.34-11.9,2.41-.08.03-.16.04-.24.07-1.34.38-2.66.78-3.96,1.21-.06.02-.12.04-.19.06-5.71,1.9-11.16,4.38-16.29,7.35-.39.23-.78.46-1.17.69-13.14,7.9-24.06,19.12-31.58,32.51-.94,1.66-1.83,3.36-2.64,5.09l-184.1,354.29v-316.32c0-26.87-12.01-50.94-30.96-67.13-15.41-13.17-35.43-21.12-57.29-21.12-23.6,0-45.03,9.26-60.86,24.33-5.33,5.08-10.03,10.82-13.96,17.08v.03c-2.53,4.01-4.72,8.23-6.57,12.63v.02s-183.88,350.48-183.88,350.48v-212.66h-111.25v322.07c0,48.63,39.42,88.05,88.05,88.05,9.73,0,19.1-1.58,27.85-4.5.34-.11.68-.23,1.01-.34,18.49-6.41,34.17-18.81,44.75-34.88v-.02c3.27-4.97,6.04-10.28,8.26-15.88v-.03s181.06-354.74,181.06-354.74l.33,317.11c-.11,1.8-.17,3.62-.17,5.46s.06,3.65.17,5.46c1.71,27.98,16.44,52.42,38.22,67.37,14.19,9.73,31.37,15.44,49.89,15.44,23.91,0,45.6-9.51,61.5-24.95l.12-.12h0s0,0,0,0c1.22-1.19,2.4-2.41,3.55-3.67,3.21-3.52,6.15-7.29,8.77-11.3,3.18-4.86,5.89-10.06,8.08-15.54h0s184.59-355.26,184.59-355.26l-.65,412.06h111.25V326.15h0v-.15Z"/>
</svg>