<svg width="31" height="26" viewBox="0 0 31 26" fill="none" xmlns="http://www.w3.org/2000/svg">
<path d="M11.0785 17.733L6.61679 14.6111C6.14346 14.2799 5.8204 13.7752 5.71867 13.2081C5.61694 12.6409 5.74487 12.0578 6.07433 11.587C6.40379 11.1161 6.90778 10.7961 7.47544 10.6974C8.04309 10.5986 8.62791 10.7292 9.10124 11.0604M12.6706 13.558L7.31655 9.81165C6.84323 9.48046 6.52017 8.97578 6.41844 8.40865C6.3167 7.84152 6.44464 7.2584 6.7741 6.78755C7.10356 6.31671 7.60755 5.99673 8.1752 5.89798C8.74286 5.79924 9.32768 5.92983 9.80101 6.26102L11.5857 7.5098M11.5857 7.5098L15.6012 10.3196M11.5857 7.5098C11.1124 7.17861 10.7893 6.67393 10.6876 6.1068C10.5858 5.53967 10.7138 4.95655 11.0432 4.4857C11.3727 4.01486 11.8767 3.69487 12.4443 3.59613C13.012 3.49738 13.5968 3.62798 14.0701 3.95917L21.2089 8.9543M8.40147 15.8598C7.92814 15.5286 7.34333 15.3981 6.77567 15.4968C6.20801 15.5955 5.70402 15.9155 5.37456 16.3864C5.04511 16.8572 4.91717 17.4403 5.0189 18.0075C5.12063 18.5746 5.44369 19.0793 5.91702 19.4105L11.2711 23.1568C13.1644 24.4816 15.5037 25.004 17.7743 24.609C20.0449 24.214 22.0609 22.9341 23.3787 21.0507L24.6209 19.2754C26.36 16.7899 26.6485 14.7439 26.2533 12.4972L25.2769 7.05386C25.1506 6.51052 24.82 6.03545 24.3536 5.72702C23.8872 5.41858 23.3208 5.3004 22.7715 5.39694C22.2223 5.49349 21.7323 5.79737 21.403 6.24566C21.0738 6.69395 20.9304 7.25231 21.0027 7.80515L21.4801 10.4663M21.9471 1.25008C25.365 1.23896 27.5752 2.26204 29.2823 5.72701M5.37225 23.9441C2.41209 22.2354 1.01592 20.2399 1.28223 16.3864" stroke="#0061FE" stroke-width="2.5" stroke-linecap="round" stroke-linejoin="round"/>
</svg>
